Coordinates
version=1
nRows=27
nColumns=12
inDegrees=yes

Units are S.I. units (second, meters, Newtons, ...)
Angles are in degrees

endheader
time	SC_y	SC_z	SC_x	AC_y	AC_z	AC_x	GH_y	GH_z	GH_yy	EL_x	PS_y
       0.0              -21.96          10.91          22.28          43.99          9.191         -11.07           38.1          60.13          61.91          89.52          125.6
   0.01582              -21.96          10.91          22.28          43.99           9.19         -11.07          38.11          60.13          61.87          89.51          125.6
   0.03164              -21.97          10.91          22.29          43.99           9.19         -11.06          38.12          60.13          61.84           89.5          125.6
   0.04746              -21.97          10.91           22.3          43.99           9.19         -11.06          38.13          60.14           61.8          89.49          125.6
   0.06328              -21.98          10.91           22.3          43.99          9.189         -11.06          38.15          60.14          61.76          89.48          125.6
    0.0791              -21.98          10.91          22.31          43.98          9.189         -11.06          38.16          60.14          61.72          89.47          125.6
   0.09492              -21.99          10.91          22.32          43.98          9.189         -11.05          38.18          60.14          61.68          89.45          125.6
    0.1107               -22.0          10.91          22.32          43.98          9.188         -11.05           38.2          60.14          61.63          89.44          125.6
    0.1266               -22.0          10.91          22.33          43.98          9.188         -11.04          38.22          60.14          61.58          89.43          125.6
    0.1424              -22.01          10.92          22.34          43.97          9.187         -11.04          38.24          60.14          61.53          89.41          125.6
    0.1582              -22.02          10.92          22.35          43.97          9.187         -11.04          38.26          60.15          61.47          89.39          125.6
     0.174              -22.03          10.92          22.36          43.97          9.186         -11.03          38.28          60.15          61.41          89.38          125.6
    0.1898              -22.04          10.92          22.37          43.97          9.186         -11.03          38.31          60.15          61.34          89.36          125.6
    0.2057              -22.05          10.92          22.38          43.96          9.185         -11.02          38.33          60.15          61.27          89.34          125.6
    0.2215              -22.06          10.92          22.39          43.96          9.184         -11.01          38.36          60.15          61.19          89.32          125.5
    0.2373              -22.07          10.92          22.41          43.95          9.183         -11.01           38.4          60.16           61.1          89.29          125.5
    0.2531              -22.08          10.93          22.42          43.95          9.182          -11.0          38.43          60.16          61.01          89.27          125.5
    0.2689               -22.1          10.93          22.44          43.94          9.182         -10.99          38.47          60.16          60.91          89.24          125.5
    0.2848              -22.11          10.93          22.46          43.94           9.18         -10.98          38.51          60.16           60.8          89.21          125.5
    0.3006              -22.13          10.93          22.48          43.93          9.179         -10.97          38.55          60.17          60.68          89.17          125.5
    0.3164              -22.15          10.94           22.5          43.93          9.178         -10.96           38.6          60.17          60.54          89.14          125.5
    0.3322              -22.17          10.94          22.52          43.92          9.177         -10.95          38.66          60.17           60.4           89.1          125.5
     0.348              -22.19          10.94          22.55          43.91          9.175         -10.94          38.72          60.18          60.24          89.05          125.5
    0.3639              -22.21          10.95          22.58           43.9          9.174         -10.92          38.78          60.18          60.06           89.0          125.5
    0.3797              -22.24          10.95          22.61          43.89          9.172         -10.91          38.86          60.19          59.86          88.94          125.4
    0.3955              -22.27          10.96          22.65          43.88           9.17         -10.89          38.94           60.2          59.64          88.88          125.4
    0.4113               -22.3          10.96          22.69          43.87          9.167         -10.87          39.03           60.2          59.39          88.81          125.4
